<svg id="Layer_1" data-name="Layer 1" xmlns="http://www.w3.org/2000/svg" viewBox="0 0 982.12 188.4"><defs><style>.cls-1,.cls-3{opacity:0.5;}.cls-2,.cls-3{fill:#fff;}</style></defs><title>houto</title><g class="cls-1"><path class="cls-2" d="M534.94,445.8h27.8l-66,188.4h-27.8Z" transform="translate(-468.94 -445.8)"/><path class="cls-2" d="M598.74,445.8h27.8l-66,188.4h-27.8Z" transform="translate(-468.94 -445.8)"/></g><path class="cls-2" d="M769.54,474.2v140h-32.4V556.8h-63.6v57.4h-32.4v-140h32.4v55.2h63.6V474.2Z" transform="translate(-468.94 -445.8)"/><path class="cls-2" d="M831.24,607.2a69.77,69.77,0,0,1-27.4-25.9,74.47,74.47,0,0,1,0-74.2,69.77,69.77,0,0,1,27.4-25.9q17.49-9.4,39.3-9.4t39.2,9.4a71.4,71.4,0,0,1,0,126q-17.4,9.4-39.2,9.4T831.24,607.2Zm61.7-23.9a41,41,0,0,0,15.7-15.9,50.06,50.06,0,0,0,0-46.4,41,41,0,0,0-15.7-15.9,46.86,46.86,0,0,0-44.8,0,40.88,40.88,0,0,0-15.7,15.9,50.06,50.06,0,0,0,0,46.4,40.88,40.88,0,0,0,15.7,15.9,46.86,46.86,0,0,0,44.8,0Z" transform="translate(-468.94 -445.8)"/><path class="cls-2" d="M987,600q-16.71-16.61-16.7-47.4V474.2h32.4v77.2q0,37.61,31.2,37.6,15.19,0,23.2-9.1t8-28.5V474.2h32v78.4q0,30.79-16.7,47.4t-46.7,16.6Q1003.74,616.6,987,600Z" transform="translate(-468.94 -445.8)"/><path class="cls-2" d="M1155.74,500.6h-26.8V474.2h104v26.4h-44.8V614.2h-32.4Z" transform="translate(-468.94 -445.8)"/><path class="cls-2" d="M1276.84,607.2a69.77,69.77,0,0,1-27.4-25.9,74.47,74.47,0,0,1,0-74.2,69.77,69.77,0,0,1,27.4-25.9q17.49-9.4,39.3-9.4t39.2,9.4a71.4,71.4,0,0,1,0,126q-17.4,9.4-39.2,9.4T1276.84,607.2Zm61.7-23.9a41,41,0,0,0,15.7-15.9,50.06,50.06,0,0,0,0-46.4,41,41,0,0,0-15.7-15.9,46.86,46.86,0,0,0-44.8,0A40.88,40.88,0,0,0,1278,521a50.06,50.06,0,0,0,0,46.4,40.88,40.88,0,0,0,15.7,15.9,46.86,46.86,0,0,0,44.8,0Z" transform="translate(-468.94 -445.8)"/><path class="cls-3" d="M1396.21,630.3q-3.21-3.33-3.2-9.17a26.54,26.54,0,0,1,2.19-10.88,19.15,19.15,0,0,1,6.1-7.85,14.61,14.61,0,0,1,8.91-2.9,11.54,11.54,0,0,1,8.71,3.32q3.21,3.33,3.21,9.17a26.62,26.62,0,0,1-2.19,10.89,19.21,19.21,0,0,1-6.11,7.84,14.56,14.56,0,0,1-8.9,2.9A11.57,11.57,0,0,1,1396.21,630.3Zm14.16-5.49a15.79,15.79,0,0,0,3-5.87,23.87,23.87,0,0,0,1-6.76,7.15,7.15,0,0,0-1.3-4.69,4.52,4.52,0,0,0-3.65-1.53,6.06,6.06,0,0,0-4.74,2.35,16.08,16.08,0,0,0-3,5.87,23.9,23.9,0,0,0-1,6.76,7.16,7.16,0,0,0,1.29,4.69,4.53,4.53,0,0,0,3.65,1.53A6,6,0,0,0,1410.37,624.81Z" transform="translate(-468.94 -445.8)"/><path class="cls-3" d="M1450.12,605l-9.24,8.62a9.73,9.73,0,0,1,5.33,3,7.9,7.9,0,0,1,1.88,5.37,9.78,9.78,0,0,1-1.95,6,13,13,0,0,1-5.45,4.15,19.65,19.65,0,0,1-7.91,1.51,22.61,22.61,0,0,1-6.79-1,14.65,14.65,0,0,1-5.28-2.83l3.68-5.61a11.91,11.91,0,0,0,4,2.22,15.21,15.21,0,0,0,4.93.8,9.29,9.29,0,0,0,5.23-1.25,4,4,0,0,0,1.83-3.51,2.94,2.94,0,0,0-1.34-2.66,7.58,7.58,0,0,0-4.07-.87h-3.49l1-5,8.2-7.68h-14l1.27-6.12h23.09Z" transform="translate(-468.94 -445.8)"/></svg>